<?xml version="1.0" encoding="UTF-8"?>
<!-- Generator: Adobe Illustrator 25.3.1, SVG Export Plug-In . SVG Version: 6.00 Build 0)  -->
<svg xmlns="http://www.w3.org/2000/svg" xmlns:xlink="http://www.w3.org/1999/xlink" version="1.1" id="Layer_1" x="0px" y="0px" viewBox="0 0 123.2 123.2" style="enable-background:new 0 0 123.2 123.2;" xml:space="preserve">
<style type="text/css">
	.st0{fill:#B67B6D;}
	.st1{fill:#FCD1B7;}
</style>
<g>
	<g>
		<circle class="st0" cx="61.6" cy="61.6" r="61.6"></circle>
		<path class="st1" d="M90.3,39.3c0-5.2-4.5-7.2-7.7-7.6v-1.3c0,0,0,0,0,0h-3.7c0,0-0.1,0-0.1,0.1v7.1c0,0,0,0.1,0.1,0.1h3.7    c0,0,0,0,0,0v-1c1.4,0.3,3.3,1,3.3,2.8c0,5.7-4.6,28.5-11.8,28.5c-7.3,0-11.8-22.8-11.8-28.5c0-1.7,1.8-2.4,3.1-2.7v1c0,0,0,0,0,0    H69c0,0,0.1,0,0.1-0.1v-7.1c0,0,0-0.1-0.1-0.1h-3.7c0,0,0,0,0,0v1.3c-3.2,0.5-7.5,2.5-7.5,7.6c0,5.4,4.1,30.9,14.8,33.1    c0.4,6.1-0.5,10.9-2.7,13.6c-1.4,1.8-3.4,2.6-6,2.6c-2.9,0-5.3-1.3-7-3.7c-2.4-3.4-3.1-8.7-1.9-14.3c2.3-10.1,2.1-16.3-0.6-20.2    c-1.7-2.3-4.3-3.7-7.7-4c-0.6-3.5-3.4-6.1-6.8-6.1c-3.8,0-6.9,3.4-6.9,7.6c0,4.2,3.1,7.6,6.9,7.6c2.9,0,5.5-2,6.5-4.8    c2.4,0.2,4,1,5,2.4c1.9,2.7,1.9,8-0.1,16.6c-1.6,6.9-0.7,13.4,2.6,17.9c2.4,3.4,6,5.3,10.1,5.3c3.7,0,6.7-1.3,8.9-4    c3.6-4.4,4.1-11.3,3.7-16.7C86.5,68.8,90.3,44.6,90.3,39.3z"></path>
	</g>
</g>
</svg>
