<?xml version="1.0" encoding="UTF-8"?>
<!-- Generator: Adobe Illustrator 25.3.1, SVG Export Plug-In . SVG Version: 6.00 Build 0)  -->
<svg xmlns="http://www.w3.org/2000/svg" xmlns:xlink="http://www.w3.org/1999/xlink" version="1.1" id="Layer_1" x="0px" y="0px" viewBox="0 0 123.2 123.2" style="enable-background:new 0 0 123.2 123.2;" xml:space="preserve">
<style type="text/css">
	.st0{fill:#FFEBB5;}
	.st1{fill:#211F58;}
</style>
<g>
	<circle class="st0" cx="61.6" cy="61.6" r="61.6"></circle>
	<path class="st1" d="M80,48.7c-0.9,2.2-4.8,10.3-6.1,12c0,0,2.9-5.3,3.6-12.4c0.1-1.4-0.3-2.8-2-3.5c-0.8-0.3-1-0.1-0.8-0.3   C77.7,41.2,81.9,44.3,80,48.7 M83.4,45.3c-0.8-4.8-4.4-7.6-8.1-6.4c-2.3,0.7-8.9,7.2-27.2,0c-3.8-1.5-7,1-7.9,4.1   c-0.5,2-0.7,4.1-0.6,6.2c0.2,3.7,2.2,6.8,3.9,9.9c1.4,2.4,2.7,4.9,3,7.8c0.3,3.1,0.5,6.2,0.9,9.3c0.3,2,0.7,4,1.2,6   c0.3,1.2,1.1,2.3,2.5,2.5c1.5,0.1,2.4-0.8,3.1-2c0.5-1,1-2.1,1.3-3.1c0.6-2.1,1.1-4.2,1.7-6.3c0.5-1.5,1-3.1,1.8-4.5   c1.3-2.4,3.6-2.4,5,0c0.6,1,1.1,2.2,1.4,3.4c0.8,2.7,1.5,5.5,2.3,8.2c0.4,1.1,0.9,2.2,1.6,3.1C70.8,85.3,73,85,74,83   c0.4-0.8,0.8-1.7,0.9-2.5c0.5-3.3,0.9-6.7,1.2-10.1c0.3-3.9,1-7.7,3.3-11.1c0.8-1.2,1.4-2.5,2.1-3.8c1.3-2.5,2.1-5.2,2.2-8.4   C83.6,46.7,83.5,46,83.4,45.3"></path>
</g>
</svg>
