<?xml version="1.0" encoding="UTF-8"?>
<!-- Generator: Adobe Illustrator 25.3.1, SVG Export Plug-In . SVG Version: 6.00 Build 0)  -->
<svg xmlns="http://www.w3.org/2000/svg" xmlns:xlink="http://www.w3.org/1999/xlink" version="1.1" id="Layer_1" x="0px" y="0px" viewBox="0 0 123.2 123.2" style="enable-background:new 0 0 123.2 123.2;" xml:space="preserve">
<style type="text/css">
	.st0{fill:#B67B6D;}
	.st1{fill:#FCD1B7;}
</style>
<g>
	<g>
		<circle class="st0" cx="61.6" cy="61.6" r="61.6"></circle>
	</g>
</g>
<g>
	<path class="st1" d="M91,49.7c0-1.2-1-2.2-2.2-2.2c-1.2,0-2.2,1-2.2,2.2c0,4.7-2.9,8.7-7.1,10.3c-0.7-3.2-2-6-4.6-7.9l0,0   c0-3.3-2-6.2-4.8-7.5c0-3-1.6-5.7-4-7.1c2-2.7,5.2-4.4,8.8-4.4c1.2,0,2.2-1,2.2-2.2c0-1.2-1-2.2-2.2-2.2c-5.6,0-10.5,3-13.2,7.5h0   h0c-2.7-4.5-7.6-7.5-13.2-7.5c-1.2,0-2.2,1-2.2,2.2c0,1.2,1,2.2,2.2,2.2c3.6,0,6.8,1.7,8.8,4.4c-2.4,1.5-4,4.1-4,7.2   c-2.8,1.3-4.8,4.2-4.8,7.5l0,0c-2.7,1.9-4,4.6-4.7,7.9c-4.2-1.6-7.1-5.6-7.1-10.3c0-1.2-1-2.2-2.2-2.2c-1.2,0-2.2,0.9-2.2,2.2   c0,6.9,4.6,12.8,10.9,14.7c-0.1,1.4-0.1,2.9-0.1,4.4h-8.7c-1.2,0-2.2,1-2.2,2.2c0,1.2,1,2.2,2.2,2.2h8.8c0.2,1.5,0.6,2.8,1,4.1   c-6.8,1.5-12,7.7-12,15c0,1.2,1,2.2,2.2,2.2c1.2,0,2.2-1,2.2-2.2c0-5.7,4.3-10.4,9.9-11c5.3,7.7,15.1,11,15.1,11s9.8-3.3,15.2-11   c5.5,0.6,9.9,5.3,9.9,11c0,1.2,1,2.2,2.2,2.2c1.2,0,2.2-1,2.2-2.2c0-7.3-5.2-13.5-12.1-15c0.5-1.3,0.9-2.7,1-4.1h8.8   c1.2,0,2.2-1,2.2-2.2c0-1.2-1-2.2-2.2-2.2h-8.6c0-1.5,0-3-0.1-4.4C86.4,62.5,91,56.6,91,49.7z"></path>
</g>
</svg>
