<?xml version="1.0" encoding="UTF-8"?>
<!-- Generator: Adobe Illustrator 25.3.1, SVG Export Plug-In . SVG Version: 6.00 Build 0)  -->
<svg xmlns="http://www.w3.org/2000/svg" xmlns:xlink="http://www.w3.org/1999/xlink" version="1.1" id="Layer_1" x="0px" y="0px" viewBox="0 0 123.2 123.2" style="enable-background:new 0 0 123.2 123.2;" xml:space="preserve">
<style type="text/css">
	.st0{fill:#B67B6D;}
	.st1{fill:#FCD1B7;}
</style>
<g>
	<g>
		<circle class="st0" cx="61.6" cy="61.6" r="61.6"></circle>
	</g>
</g>
<g>
	<path class="st1" d="M61.6,41.7c12.1,0,21.9,3.3,22.2,7.4c-0.7,1.5-7.8,5.4-22.2,5.4c-12.7,0-20.7-3.2-22.2-5.3c0,0,0-0.1-0.1-0.1   C39.8,45,49.5,41.7,61.6,41.7"></path>
	<path class="st1" d="M61.6,81.5c-12.8,0-23.9-2.9-27.8-7.3c-1.1-1.2-1.6-2.5-1.6-3.9c0-0.2,0-0.4,0.1-0.5l5-15.3   c0.2-0.5,0.5-0.8,0.9-1c0.4-0.1,0.9,0,1.2,0.3c2.8,2.5,10.7,5,22.2,5c9.7,0,18.8-2.1,22.1-5c0.4-0.3,0.8-0.4,1.2-0.3   c0.4,0.1,0.8,0.5,0.9,1l5,15.4c0.1,0.2,0.1,0.4,0.1,0.5C91,77.6,76.2,81.5,61.6,81.5"></path>
</g>
</svg>
