<?xml version="1.0" encoding="UTF-8"?>
<!-- Generator: Adobe Illustrator 25.3.1, SVG Export Plug-In . SVG Version: 6.00 Build 0)  -->
<svg xmlns="http://www.w3.org/2000/svg" xmlns:xlink="http://www.w3.org/1999/xlink" version="1.1" id="Layer_1" x="0px" y="0px" viewBox="0 0 123.2 123.2" style="enable-background:new 0 0 123.2 123.2;" xml:space="preserve">
<style type="text/css">
	.st0{fill:#6FAF99;}
	.st1{fill:#FCD1B7;}
</style>
<g>
	<circle class="st0" cx="61.6" cy="61.6" r="61.6"></circle>
	<path class="st1" d="M48.1,63.6c0,0.8-0.3,1.6-0.9,2.1c-0.5,0.5-1.3,0.9-2.2,0.9h0c-0.8,0-1.6-0.3-2.2-0.9c-1.1-1.2-1.1-3.1,0-4.3   c0.6-0.6,1.4-0.9,2.2-0.9h0c0.8,0,1.6,0.3,2.1,0.9C47.7,62,48.1,62.8,48.1,63.6 M61.8,76c0.6,0.6,0.9,1.3,0.9,2.1   c0,0.8-0.3,1.6-0.9,2.2c-1.2,1.2-3.1,1.2-4.3,0c-0.5-0.5-0.9-1.3-0.9-2.2c0-0.8,0.3-1.7,0.9-2.2C58.5,74.9,60.6,74.9,61.8,76    M85.9,50.3c-0.8-0.7-2.2-1.7-3.7-1.2c-3.6,1.2-10.1,4-13.8,5.6c2.8-6.5,4.8-11.2,5.7-13.8c0.5-1.5-0.5-2.9-1.2-3.7   c-0.9-1.1-1.8-1.5-2.5-1.4L69.7,36l-0.2,0.5L57.3,59.4c-1.1,0.9-2.2,1.8-3.1,2.5c-0.6-3.2-2.8-5.9-5.9-7c-3.8-1.4-8-0.2-10.6,3.1   c-2.5,3.1-2.4,7.9,0.2,11.5c1.4,1.9,3.2,3.1,5.4,3.4c3.2,0.5,6.8-1,9.8-2.7c-1.7,3-3.2,6.5-2.7,9.8c0.3,2.2,1.5,4,3.4,5.4   c1.9,1.3,4,2,6.1,2c2,0,3.9-0.6,5.4-1.8c3.3-2.6,4.5-6.8,3.1-10.6c-1.2-3.2-3.8-5.3-7-5.9c0.7-0.9,1.6-2,2.5-3.1l22.8-12.3l0.6-0.2   l0.1-0.7C87.5,52,87,51.2,85.9,50.3"></path>
</g>
</svg>
