<?xml version="1.0" encoding="UTF-8"?>
<!-- Generator: Adobe Illustrator 26.5.0, SVG Export Plug-In . SVG Version: 6.00 Build 0)  -->
<svg xmlns="http://www.w3.org/2000/svg" xmlns:xlink="http://www.w3.org/1999/xlink" version="1.1" id="Layer_1" x="0px" y="0px" viewBox="0 0 123.2 123.2" style="enable-background:new 0 0 123.2 123.2;" xml:space="preserve">
<style type="text/css">
	.st0{fill:#212059;}
	.st1{fill:#FFECB6;}
</style>
<g>
	<circle class="st0" cx="61.6" cy="61.6" r="61.6"></circle>
</g>
<g id="eye_1_">
	<g>
		<g>
			<path class="st1" d="M61.6,82.6c-22.6,0-37.6-18.3-38.3-19c-1.1-1.1-1.1-2.9,0-4c0.7-0.7,15.7-19,38.3-19s37.6,18.3,38.3,19     c1.1,1.1,1.1,2.9,0,4C99.2,64,84.2,82.6,61.6,82.6z M30.2,61.4C34.6,65.8,46.3,76,61.6,76s27-10.2,31.4-14.6     C88.6,57,76.9,46.8,61.6,46.8C46.3,46.8,34.6,57,30.2,61.4z"></path>
		</g>
	</g>
	<g>
		<path class="st1" d="M61.6,80.8C51,80.8,42.2,72,42.2,61.4c-0.4-11,8.4-19.7,19.4-19.7c10.6,0,19.4,8.8,19.4,19.4    C81,72,72.2,80.8,61.6,80.8z M61.6,48.3c-7.3,0-13.1,5.8-13.1,13.1s5.8,13.1,13.1,13.1s13.1-5.8,13.1-13.1    C74.4,54.1,68.5,48.3,61.6,48.3z"></path>
	</g>
	<path class="st1" d="M61.6,54.8c-0.7,0-1.5,0-1.8,0.4c1.1,0.4,1.8,1.5,1.8,2.9c0,1.8-1.5,3.3-3.3,3.3c-1.5,0-2.6-0.7-2.9-1.8   C55,60.3,55,60.7,55,61.4c0,3.7,2.9,6.6,6.6,6.6c3.7,0,6.6-2.9,6.6-6.6C67.8,57.8,65.3,54.8,61.6,54.8z"></path>
</g>
</svg>
