<?xml version="1.0" encoding="UTF-8"?>
<!-- Generator: Adobe Illustrator 25.3.1, SVG Export Plug-In . SVG Version: 6.00 Build 0)  -->
<svg xmlns="http://www.w3.org/2000/svg" xmlns:xlink="http://www.w3.org/1999/xlink" version="1.1" id="Layer_1" x="0px" y="0px" viewBox="0 0 123.2 123.2" style="enable-background:new 0 0 123.2 123.2;" xml:space="preserve">
<style type="text/css">
	.st0{fill:#6FAF99;}
	.st1{fill:#FCD1B7;}
</style>
<g>
	<g>
		<circle class="st0" cx="61.6" cy="61.6" r="61.6"></circle>
	</g>
</g>
<path class="st1" d="M47.1,31.4c-2.2,1.5-3.4,4-3.3,6.7c-2.7-0.9-5.6-0.5-7.8,0.9c-2,1.4-3.3,3.5-3.6,5.8c-0.3,2.3,0.4,4.6,2.1,6.5  c2.5,3,5.7,3.5,8.7,4c3.1,0.5,6,1,8.2,3.9l9.4,12.4c2.2,2.9,1.8,5.7,1.4,8.7c-0.4,2.9-0.9,5.9,1.3,9.1c1.4,2.1,3.5,3.4,5.8,3.9  c2.4,0.4,4.9-0.1,6.9-1.5c2.2-1.5,3.4-4,3.3-6.7c2.7,0.9,5.6,0.5,7.8-0.9c1.9-1.3,3.3-3.4,3.6-5.6c0-0.1,0-0.1,0-0.2  c0.3-2.3-0.4-4.6-2.1-6.5c-2.5-3-5.7-3.5-8.7-4c-3.1-0.5-6-1-8.2-3.9l-9.4-12.4c-2.2-2.9-1.8-5.7-1.4-8.7c0.4-2.9,0.9-5.9-1.3-9.1  c-1.4-2.1-3.5-3.4-5.8-3.9C51.6,29.4,49.1,30,47.1,31.4"></path>
</svg>
