<?xml version="1.0" encoding="UTF-8"?>
<!-- Generator: Adobe Illustrator 25.3.1, SVG Export Plug-In . SVG Version: 6.00 Build 0)  -->
<svg xmlns="http://www.w3.org/2000/svg" xmlns:xlink="http://www.w3.org/1999/xlink" version="1.1" id="Layer_1" x="0px" y="0px" viewBox="0 0 123.2 123.2" style="enable-background:new 0 0 123.2 123.2;" xml:space="preserve">
<style type="text/css">
	.st0{fill:#A42022;}
	.st1{fill:#FCD1B7;}
</style>
<g>
	<circle class="st0" cx="61.6" cy="61.6" r="61.6"></circle>
	<path class="st1" d="M58.4,77.1c-2.3,0.9-4.7,0.9-7.1,0.7c-1.3-0.1-2.7-0.3-4-0.6c-0.3-0.1-0.8-0.4-0.9-0.7   c-0.6-3.5-1-6.9-0.2-10.4c0.6-2.5,2.2-3.9,4.4-4c2.2-0.1,4.2,1,4.9,3c0.3,0.8,0.4,1.6,0.6,2.5c0.6,0.1,1.2,0.1,1.8,0.3   c2,0.6,3.5,2.4,3.6,4.6C61.7,74.4,60.4,76.4,58.4,77.1 M88.4,52.8c-1.5-1.5-3.7-1.4-5.3,0.2c-4.3,4.3-8.6,8.6-12.9,12.9   c-0.3,0.3-0.7,0.7-1.1,0.9c-1.3-1.6-0.9-2.6,0.4-3.8c4.9-4.7,9.7-9.6,14.5-14.4c1.8-1.8,2-4,0.5-5.6c-1.6-1.6-3.8-1.5-5.7,0.3   c-2.7,2.7-5.4,5.4-8.1,8.1c-2.3,2.3-4.5,4.6-6.9,7.1c-2,1.8-3.2-0.3-1.8-1.8c0.5-0.5,0.8-0.9,1.2-1.2c4.2-4.2,8.5-8.4,12.7-12.7   c2.1-2.1,1.6-5.1-0.9-6.2c-1.5-0.7-3.1-0.3-4.5,1.2c-4.5,4.5-9.1,9-13.5,13.6c-1.3,1.4-2.4,1.5-4,0.5c0.4-0.4,0.7-0.8,1.1-1.1   c3.5-3.5,7-6.9,10.4-10.5c1.4-1.4,1.4-3.5,0.1-4.8c-1.4-1.4-3.4-1.4-4.9,0.1c-6.9,6.9-13.9,13.7-20.7,20.6   c-5.3,5.4-6.5,12.1-3.4,18.6c2.5,5.3,6.5,9.3,11.7,12.1c1.5,0.8,3.3,1.3,5,1.6C57.3,89.4,62,88,66.7,86c3.8-1.6,7.6-3,11.7-3.4   c1.9-0.2,3.9-0.3,5.8-0.3c1.2-0.1,1.6-0.7,1.6-1.9c-0.1-2.8-2.7-5.6-5.9-5.7c-2.2-0.1-4.4,0.5-6.7,0.7c-0.7,0.1-1.3,0.2-2.4,0.3   c5.7-5.7,11.1-11.1,16.5-16.5c0.4-0.4,0.8-0.7,1.1-1.1C89.8,56.5,89.8,54.2,88.4,52.8"></path>
</g>
</svg>
