<?xml version="1.0" encoding="UTF-8"?>
<!-- Generator: Adobe Illustrator 25.3.1, SVG Export Plug-In . SVG Version: 6.00 Build 0)  -->
<svg xmlns="http://www.w3.org/2000/svg" xmlns:xlink="http://www.w3.org/1999/xlink" version="1.1" id="Layer_1" x="0px" y="0px" viewBox="0 0 123.2 123.2" style="enable-background:new 0 0 123.2 123.2;" xml:space="preserve">
<style type="text/css">
	.st0{opacity:0.91;fill:#FBC097;}
	.st1{fill:#211F58;}
</style>
<g>
	<g>
		<circle class="st0" cx="61.6" cy="61.6" r="61.6"></circle>
	</g>
	<g>
		<path class="st1" d="M88.4,31.3c1,5.4-1,9.6-3.2,13.8c-0.9,1.6-1.8,3.2-2.8,4.7c-2.5,3.8-2.6,3.9-6.8,1.9    c-1.8-0.9-3.2-0.9-4.5,0.8c-1.8,2.2-3.8,4.3-5.5,6.2C69.8,63,73.9,67,78,71.1c0.1-0.3,0.4-1,0.8-1.8c1.9-3.9,6.5-5.3,10.1-3.1    c3.5,2.1,4.5,6.8,2.2,10.2c-2.3,3.4-7.4,4.3-10.5,1.4c-4.9-4.6-15.7-16.1-16.5-17.3c-1.4,1.4-2.1,2.2-3.1,3.3    c4.6,4.5,9.1,8.9,13.5,13.2c1,1,2,2,3,3.1c2.3,2.5,2.7,6.1,1.1,8.8c-1.6,2.6-4.9,3.9-8,3.2c-2.8-0.7-4.9-3.2-5.2-6.1    c-0.3-3.5,1.3-6.1,4.6-7.5c0.5-0.2,1.1-0.4,1.5-0.5c-4-4-8-7.9-12.7-12.5C58.6,65.8,46.6,79.9,41.1,86c-3.1,3.4-3.1,3.4-7,0    c7.8-7.6,15.6-15.2,23.6-23c-7-7-13.5-13.4-19.9-19.9c-1.9-1.9-3.6-4.2-5-6.5c-0.9-1.5-1.2-3.4-2-5.7c4.9,0.3,8.3,2.4,11.2,5.3    c6.3,6.2,12.4,12.4,18.7,18.6c0.7,0.7,1.5,1.4,2.4,2.3C71.6,48.4,80,39.9,88.4,31.3z M85.3,75.9c1.8,0,3.5-1.7,3.5-3.5    c0-1.9-1.8-3.6-3.7-3.6c-1.8,0.1-3.5,1.8-3.4,3.6C81.8,74.2,83.5,75.9,85.3,75.9z M75.9,85c-0.1-1.7-1.7-3.4-3.4-3.3    c-1.8,0-3.4,1.7-3.4,3.4c0,1.9,1.7,3.5,3.5,3.4C74.5,88.4,76,86.8,75.9,85z M49.5,47.3c-0.7,0.8-1.4,1.6-1.7,1.9    c4,4.1,7.7,7.8,11.4,11.7c0.6-0.5,1.3-1.1,2-1.7C57.2,55,53.5,51.2,49.5,47.3z"></path>
	</g>
</g>
</svg>
