<?xml version="1.0" encoding="UTF-8"?>
<!-- Generator: Adobe Illustrator 25.3.1, SVG Export Plug-In . SVG Version: 6.00 Build 0)  -->
<svg xmlns="http://www.w3.org/2000/svg" xmlns:xlink="http://www.w3.org/1999/xlink" version="1.1" id="Layer_1" x="0px" y="0px" viewBox="0 0 123.2 123.2" style="enable-background:new 0 0 123.2 123.2;" xml:space="preserve">
<style type="text/css">
	.st0{fill:#FFEBB5;}
	.st1{fill:#211F58;}
</style>
<g>
	<circle class="st0" cx="61.6" cy="61.6" r="61.6"></circle>
</g>
<g>
	<path class="st1" d="M21.7,67.2c0.6,7.5,1.2,10.4,8.2,10.9c0-0.4-0.1-0.8-0.1-1.2c0-6.1,5-11.1,11.1-11.1S52,70.8,52,76.9   c0,0.4,0,0.9-0.1,1.3h19.5c-0.1-0.4-0.1-0.9-0.1-1.3c0-6.1,5-11.1,11.1-11.1s11.1,5,11.1,11.1c0,0.4,0,0.9-0.1,1.3h0.3   c3.7,0,6.7-3.8,7.5-9.6c0.8-5.7-1-12.3-6.8-14c-1.3-0.4-1.8-1.3-2.8-3.9c-1.7-4.6-4.3-11.6-19.3-11.9c-0.4,0-0.8,0-1.3,0   c-3.6,0-16.1,0.5-22.3,6.8c-4.1,4.2-8.7,7.2-12.1,8C32.9,54.5,20.9,57.3,21.7,67.2z M75,43.5c10,0.9,11.6,5.3,13.1,9.2   c0.1,0.2,0.2,0.4,0.2,0.6H75V43.5z M51.7,49c4.1-4.2,12.8-5.7,19.5-5.7v10H46.7C48.4,52.1,50.1,50.6,51.7,49z"></path>
	<path class="st1" d="M74.9,76.9c0,0.9,0.2,1.8,0.4,2.5c1,2.9,3.8,5,7.1,5c3.3,0,6-2.1,7.1-5c0.3-0.8,0.4-1.7,0.4-2.5   c0-4.1-3.4-7.5-7.5-7.5S74.9,72.8,74.9,76.9z"></path>
	<path class="st1" d="M33.4,76.9c0,0.9,0.1,1.8,0.4,2.5c1,2.9,3.8,5,7.1,5s6-2.1,7.1-5c0.3-0.8,0.4-1.7,0.4-2.5   c0-4.1-3.4-7.5-7.5-7.5S33.4,72.8,33.4,76.9z"></path>
</g>
</svg>
