<?xml version="1.0" encoding="UTF-8"?>
<!-- Generator: Adobe Illustrator 28.0.0, SVG Export Plug-In . SVG Version: 6.00 Build 0)  -->
<svg xmlns="http://www.w3.org/2000/svg" xmlns:xlink="http://www.w3.org/1999/xlink" version="1.1" id="Layer_1" x="0px" y="0px" viewBox="0 0 123.2 123.2" style="enable-background:new 0 0 123.2 123.2;" xml:space="preserve">
<style type="text/css">
	.st0{fill:#FCC198;}
	.st1{fill-rule:evenodd;clip-rule:evenodd;fill:#252354;}
</style>
<circle class="st0" cx="61.6" cy="61.6" r="61.6"></circle>
<g>
	<path class="st1" d="M40.4,71c4.7,0,8.5,3.8,8.5,8.5c0,4.7-3.8,8.5-8.5,8.5c-4.7,0-8.5-3.8-8.5-8.5C31.9,74.8,35.7,71,40.4,71   L40.4,71z M74.4,41.3h5.1c7.5,0,13.8,5.5,15.1,12.6c0.3,1.6-1,2.7-2.2,2.7H74.4c-1.3,0-2.4-1.1-2.4-2.4V43.8   C72,42.4,73.1,41.3,74.4,41.3L74.4,41.3z M99,73.1V56.2c0-10.5-8.6-19-19-19h-52c-2,0-3.7,1.6-3.7,3.7v32.3c-0.7,0-1.3,0.6-1.3,1.3   v4.9c0,1.6,1.3,2.9,2.9,2.9h4.1v-2.7c0-5.8,4.7-10.5,10.5-10.5c5.8,0,10.5,4.7,10.5,10.5v2.7h21.6v-2.7C72.5,73.7,77.2,69,83,69   c5.8,0,10.5,4.7,10.5,10.5v2.7h3.9c1.6,0,2.9-1.3,2.9-2.9v-4.9C100.3,73.7,99.7,73.1,99,73.1L99,73.1z M83,71   c-4.7,0-8.5,3.8-8.5,8.5c0,4.7,3.8,8.5,8.5,8.5c4.7,0,8.5-3.8,8.5-8.5C91.5,74.8,87.7,71,83,71L83,71z"></path>
	<g>
		<path class="st0" d="M51.3,47.6c-0.4,1.6-0.5,3.1,1.3,3.8c1.8,0.7,2.2-0.8,2.3-2.5c0.1-1.4-0.5-2.7-1.4-3    C52.5,45.6,51.6,46.3,51.3,47.6z"></path>
		<path class="st0" d="M48.8,47.6c0.4,1.6,0.5,3.1-1.3,3.8c-1.8,0.7-2.2-0.8-2.3-2.5c-0.1-1.4,0.5-2.7,1.4-3    C47.5,45.6,48.5,46.3,48.8,47.6z"></path>
		<path class="st0" d="M56.2,51.9c-0.6,1.4-0.9,2.8,0.7,3.5c1.6,0.7,2.2-0.6,2.5-2.1c0.3-1.3-0.1-2.5-0.9-2.8    C57.7,50.2,56.7,50.8,56.2,51.9z"></path>
		<path class="st0" d="M43.9,51.9c0.6,1.4,0.9,2.8-0.7,3.5c-1.6,0.7-2.2-0.6-2.5-2.1c-0.3-1.3,0.1-2.5,0.9-2.8    C42.4,50.2,43.4,50.8,43.9,51.9z"></path>
		<path class="st0" d="M50,52.1c-4.6,0-8.1,6.2-6.9,9.6c1.1,3.4,4.7,2.1,6.9,2.1c2.2,0,5.8,1.3,6.9-2.1C58.1,58.3,54.7,52.1,50,52.1    z M53.6,59.5h-2.5V62h-2.2v-2.5h-2.5v-2.2h2.5v-2.5h2.2v2.5h2.5V59.5z"></path>
	</g>
</g>
</svg>
