<?xml version="1.0" encoding="UTF-8"?>
<svg xmlns="http://www.w3.org/2000/svg" id="Layer_1" data-name="Layer 1" viewBox="0 0 123.18 123.18">
  <defs>
    <style>.cls-1{fill:#212059;}.cls-2{fill:#fdd2b7;}</style>
  </defs>
  <circle class="cls-1" cx="61.59" cy="61.59" r="61.59"></circle>
  <path class="cls-2" d="M48.08,63.64a3,3,0,0,1-.86,2.15,3.14,3.14,0,0,1-2.19.85h0a3.08,3.08,0,0,1-2.17-.86A3.09,3.09,0,0,1,45,60.55h0a3,3,0,0,1,2.14.89,3.08,3.08,0,0,1,.89,2.2M61.77,76a3,3,0,0,1,.88,2.14,3,3,0,1,1-6.09,0,3.12,3.12,0,0,1,.86-2.2,3.21,3.21,0,0,1,4.35,0M85.92,50.28c-.75-.65-2.23-1.68-3.7-1.16-3.58,1.24-10.09,4-13.82,5.65C71.24,48.24,73.15,43.6,74.07,41c.5-1.47-.51-3-1.17-3.7-.92-1.07-1.75-1.54-2.46-1.4l-.74.2-.18.54L57.3,59.37c-1.09.9-2.24,1.83-3.14,2.55a9.17,9.17,0,0,0-5.93-7.05A9.27,9.27,0,0,0,37.65,58c-2.48,3.14-2.4,7.89.21,11.54a7.83,7.83,0,0,0,5.36,3.39c3.23.47,6.82-1,9.77-2.7-1.71,3-3.18,6.54-2.7,9.78a7.9,7.9,0,0,0,3.4,5.36,10.58,10.58,0,0,0,6.13,2,8.67,8.67,0,0,0,5.41-1.81A9.28,9.28,0,0,0,61.29,69c.71-.89,1.65-2.05,2.54-3.14L86.65,53.65l.55-.23.13-.66c.14-.71-.33-1.55-1.41-2.48" transform="translate(-0.01 -0.01)"></path>
</svg>
