<?xml version="1.0" encoding="UTF-8"?>
<!-- Generator: Adobe Illustrator 25.4.1, SVG Export Plug-In . SVG Version: 6.00 Build 0)  -->
<svg xmlns="http://www.w3.org/2000/svg" xmlns:xlink="http://www.w3.org/1999/xlink" version="1.1" id="Layer_1" x="0px" y="0px" viewBox="0 0 123.2 123.2" style="enable-background:new 0 0 123.2 123.2;" xml:space="preserve">
<style type="text/css">
	.st0{fill:#FFEBB5;}
	.st1{fill:#252354;}
	.st2{display:none;}
	.st3{display:inline;fill:#212059;}
	.st4{display:inline;}
	.st5{display:inline;fill:#FFEBB5;}
</style>
<circle class="st0" cx="61.6" cy="61.8" r="61.6"></circle>
<g>
	<path class="st1" d="M62.8,62c0-8,0-16.1,0-24.1c0-0.7,0.1-1.5,0.5-2.1c2.3-4.3,6.8-6.1,11.7-4.8c4,1.1,6.6,4.9,6.4,9.9   c-0.1,1.6-0.4,3.1-0.9,4.6c-0.5,1.5-1.7,2.3-3.4,2.3c-0.9,0-1.7,0.1-1.7,1.2c0,1.2,1,1.2,1.9,1.1c2.6-0.1,4.4-1.5,5.4-3.8   c0.6-1.4,0.8-3,1-4.5c0.1-1.1,0.7-1.4,1.5-0.9c1.4,0.9,3.1,1.7,4.1,3c3.8,4.8,3,13.4-1.4,16.7c-1,0.8-0.8,1.8-0.2,2.7   c0.9,1.6,2,3.1,2.7,4.9c2.2,5.4,0.4,11.1-4.3,14.3c-2.5,1.7-5.1,1.9-7.7,0.6c-0.9-0.5-1.7-1.5-2.3-2.4c-0.4-0.6-0.7-1.3-1.5-1.1   c-1,0.3-0.9,1.1-0.7,1.8c0.8,2.6,2.8,3.7,5.2,4.3c1.9,0.5,2.3,0.9,1.3,2.6c-0.7,1.3-1.9,2.5-3.1,3.2c-3.3,1.8-6.9,1.7-10.2,0.1   c-2.6-1.3-4.2-3.3-4.1-6.5C62.9,77.5,62.8,69.7,62.8,62z M77.2,59.6c0.9,0,2.9,0,2.8-1.7c0-0.4-0.7-0.7-1.1-0.7   c-0.6-0.1-1.3,0.2-1.9,0.1c-4.4-0.5-7.7-4.4-7.4-8.8c0.1-0.9,0.1-1.7-1-1.8c-1.1-0.1-1.2,0.8-1.3,1.6   C66.7,53.9,71.6,59.4,77.2,59.6z M80.5,71.6c-4-2.9-10.8-1.5-13.4,2.7c-0.4,0.7-0.6,1.4,0.2,1.8c0.4,0.2,1.3-0.1,1.6-0.4   c3.4-3.8,6.5-4.3,11-1.7c0.3,0.2,0.9,0.2,1.3,0C81.4,73.9,82.5,72.8,80.5,71.6z"></path>
	<path class="st1" d="M60.4,85.2c0,3.2-1.5,5.2-4.1,6.5c-3.4,1.6-6.9,1.7-10.2-0.1c-1.3-0.7-2.4-1.9-3.1-3.2c-1-1.7-0.7-2.1,1.3-2.6   c2.4-0.6,4.4-1.8,5.2-4.3c0.2-0.8,0.3-1.6-0.7-1.8c-0.9-0.2-1.1,0.4-1.5,1.1c-0.6,0.9-1.4,2-2.3,2.4c-2.6,1.3-5.2,1.1-7.7-0.6   c-4.7-3.2-6.5-8.9-4.3-14.3c0.7-1.7,1.8-3.2,2.7-4.9c0.6-1,0.8-1.9-0.2-2.7c-4.4-3.4-5.1-12-1.4-16.7c1-1.3,2.6-2.1,4.1-3   c0.8-0.5,1.3-0.2,1.5,0.9c0.2,1.5,0.5,3.1,1,4.5c0.9,2.4,2.8,3.7,5.4,3.8c0.9,0,1.8,0.1,1.9-1.1c0-1.1-0.8-1.2-1.7-1.2   c-1.6,0-2.9-0.8-3.4-2.3c-0.5-1.5-0.9-3.1-0.9-4.6c-0.2-5,2.4-8.8,6.4-9.9c4.9-1.3,9.4,0.5,11.7,4.8c0.3,0.6,0.5,1.4,0.5,2.1   c0,8,0,16.1,0,24.1C60.4,69.7,60.3,77.5,60.4,85.2z M55.9,48.3c-0.1-0.8-0.2-1.7-1.3-1.6c-1.1,0.1-1.1,0.9-1,1.8   c0.3,4.4-3,8.3-7.4,8.8c-0.6,0.1-1.3-0.2-1.9-0.1c-0.4,0.1-1.1,0.3-1.1,0.7c0,1.7,2,1.7,2.8,1.7C51.6,59.4,56.5,53.9,55.9,48.3z    M42,74c0.4,0.1,0.9,0.1,1.3,0c4.5-2.5,7.6-2,11,1.7c0.3,0.4,1.2,0.6,1.6,0.4c0.8-0.4,0.6-1.1,0.2-1.8c-2.6-4.2-9.4-5.6-13.4-2.7   C40.7,72.8,41.8,73.9,42,74z"></path>
</g>
<g class="st2">
	<circle class="st3" cx="61.6" cy="61.6" r="61.6"></circle>
	<g class="st4">
		<g>
			<g>
				<g>
					<path class="st0" d="M80.9,54c1.6-3.4,4.6-7.3,7.5-6.1c2.9,1.1,4.6,6.8,2.9,10.3c-1.6,3.4-5.3,5.2-8.2,4.1       C80.2,61.1,79.2,57.4,80.9,54"></path>
					<path class="st0" d="M70.2,35.5c3.5,0,8.6,5.4,8.6,9.5s-2.8,7.5-6.3,7.5s-6.3-3.4-6.3-7.5S66.7,35.5,70.2,35.5"></path>
					<path class="st0" d="M53.6,35.5c3.5,0,4.1,5.4,4.1,9.5s-2.8,7.5-6.3,7.5c-3.5,0-6.3-3.4-6.3-7.5S50.1,35.5,53.6,35.5"></path>
					<path class="st0" d="M34.9,47.9c2.9-1.1,5.8,2.7,7.5,6.1c1.6,3.4,0.6,7.1-2.2,8.2c-2.9,1.1-6.5-0.7-8.2-4.1       C30.3,54.7,32,49,34.9,47.9"></path>
				</g>
			</g>
			<path class="st0" d="M77.9,68.5c-2.3-1.4-4-3.4-5.2-5.6c-2-3.7-6.2-6.3-11.1-6.3c-4.6,0-8.6,2.3-10.7,5.6c-1.7,2.7-4,5.1-6.7,7.1     c-4.3,3.2-6.4,7.8-4.9,11.8c2.1,5.6,10.4,8.2,18.6,5.7l0,0c2.4-0.7,5-0.7,7.4,0l0,0c8.1,2.5,16.4,0,18.6-5.7     C85.6,76.6,83,71.7,77.9,68.5z M61.6,81.1c-17.7,0,0-19.6,0-19.6S79.3,81.1,61.6,81.1z"></path>
		</g>
	</g>
</g>
<g class="st2">
	<ellipse class="st3" cx="61.6" cy="61.7" rx="61.5" ry="61.5"></ellipse>
	<g id="_x30_rCoYN.tif" class="st4">
		<g>
			<path class="st0" d="M49.3,48c-0.3,0.4-0.6,0.9-0.9,1c-0.4,0.1-1,0.1-1.3-0.2c-0.5-0.3-0.9-0.9-1.4-1.3c-2-2-4-4-6-6     c-0.5-0.5-0.7-1-0.3-1.6c0.3-0.3,0.8-0.6,1.3-0.7c0.2,0,0.6,0.2,0.8,0.5c2.4,2.4,4.8,4.8,7.2,7.2C48.8,47.1,49,47.5,49.3,48z"></path>
			<path class="st0" d="M84.2,83c-0.3,0.4-0.5,0.9-0.9,1c-0.4,0.1-1,0.1-1.3-0.2c-0.5-0.3-0.8-0.8-1.2-1.2c-2.1-2.1-4.1-4.1-6.2-6.2     c-0.7-0.8-0.7-1.7,0.2-2.2c0.6-0.3,1.1-0.2,1.5,0.2c2.5,2.5,5,5,7.4,7.5C83.9,82.2,84,82.6,84.2,83z"></path>
			<path class="st0" d="M50.3,40.6c0-1.1,0-2.3,0-3.4c0-0.9,0.5-1.4,1.2-1.4c0.8,0,1.2,0.5,1.3,1.4c0,2.3,0,4.5,0,6.8     c0,0.9-0.5,1.4-1.3,1.4c-0.8,0-1.2-0.5-1.2-1.4C50.3,42.9,50.3,41.8,50.3,40.6C50.3,40.6,50.3,40.6,50.3,40.6z"></path>
			<path class="st0" d="M40.6,50.4c1.1,0,2.2,0,3.4,0c0.9,0,1.4,0.5,1.4,1.2c0,0.8-0.5,1.3-1.4,1.3c-2.3,0-4.5,0-6.8,0     c-0.9,0-1.4-0.5-1.4-1.2c0-0.8,0.5-1.2,1.4-1.3C38.3,50.4,39.4,50.4,40.6,50.4C40.6,50.4,40.6,50.4,40.6,50.4z"></path>
			<path class="st0" d="M82.6,70.4c1.1,0,2.3,0,3.4,0c0.8,0,1.4,0.5,1.3,1.3c0,0.7-0.5,1.2-1.3,1.2c-2.3,0-4.6,0-6.9,0     c-0.8,0-1.3-0.5-1.3-1.2c0-0.7,0.5-1.2,1.3-1.3C80.3,70.4,81.4,70.4,82.6,70.4z"></path>
			<path class="st0" d="M70.3,82.7c0-1.1,0-2.3,0-3.4c0-0.8,0.5-1.4,1.3-1.3c0.7,0,1.2,0.5,1.2,1.3c0,2.3,0,4.6,0,6.9     c0,0.8-0.5,1.3-1.2,1.3c-0.7,0-1.2-0.5-1.3-1.3C70.3,85,70.3,83.9,70.3,82.7z"></path>
		</g>
	</g>
	<path class="st5" d="M66.4,73.9c-0.5-3.3-2.4-5.5-5.5-6.7c-1.5-0.5-3-0.5-4.5-0.3c0-0.1,0-0.2,0-0.3c1.1-6.2-4.7-11.4-10.7-9.5   c-4.4,1.4-7.2,6.4-6.1,11.2c0.3,1.5,1.1,2.9,1.6,4.3c0.1,0-7.2,7.4-10.8,11l10,8.6c3.2-3.2,10-10.2,10.2-10.5   c0.3,0.3,0.5,0.4,0.6,0.4c3.5,2.4,7.9,2.5,11.4,0.1C65.5,80.3,66.9,77.4,66.4,73.9z"></path>
	<path class="st5" d="M52.1,50.9c0.5,3.7,2.7,6.3,6.3,7.6c1.7,0.6,3.4,0.6,5.2,0.4c0,0.2,0,0.2,0,0.3c-1.3,7.1,5.3,12.9,12.2,10.8   c5-1.5,8.2-7.3,7-12.7c-0.4-1.7-1.2-3.3-1.9-4.9c-0.1,0,8.2-8.4,12.3-12.5l-11.4-9.8C78.1,33.8,70.3,41.7,70.1,42   c-0.4-0.3-0.5-0.4-0.7-0.5c-4-2.7-8.9-2.8-12.9-0.1C53.2,43.7,51.6,46.9,52.1,50.9z"></path>
</g>
</svg>
