<?xml version="1.0" encoding="UTF-8"?>
<!-- Generator: Adobe Illustrator 25.3.1, SVG Export Plug-In . SVG Version: 6.00 Build 0)  -->
<svg xmlns="http://www.w3.org/2000/svg" xmlns:xlink="http://www.w3.org/1999/xlink" version="1.1" id="Layer_1" x="0px" y="0px" viewBox="0 0 123.2 123.2" style="enable-background:new 0 0 123.2 123.2;" xml:space="preserve">
<style type="text/css">
	.st0{fill:#212059;}
	.st1{fill:#FDD2B7;}
</style>
<circle class="st0" cx="61.6" cy="61.6" r="61.6"></circle>
<g>
	<path class="st1" d="M80.6,91.6c0.3,0.2,0.9,0.4,1.2,0.2c0.3-0.2,0.4-0.7,0.5-1.1c0-0.3-0.3-0.6-0.4-0.9c-2-3.6-3.9-7.2-5.9-10.9   c-0.8-1.4-1.5-2.8-2.4-4.3c0.9-0.5,1-1.2,0.5-1.9c-0.4-0.6-0.7-1.3-1-2c0.3-0.1,0.5-0.2,0.7-0.3c2.5-1.4,3.1-3.2,1.7-5.8   c-1.6-2.9-3.1-5.9-4.7-8.8C67.5,50,64.3,44.1,61,38.3c-0.4-0.7-0.9-1.4-1.5-2.2c1.4-0.7,2.4-1.3,3.5-1.8c1-0.6,1.4-1.4,0.9-2.2   c-0.4-0.8-1.3-0.9-2.3-0.4c-6.6,3.6-13.1,7.1-19.7,10.7c-1,0.5-1.3,1.3-0.9,2.1c0.4,0.8,1.3,1,2.3,0.5c1.1-0.6,2.1-1.3,3.4-2.1   c1.9,3.5,14,26.2,16.1,29.8c0.8,1.5,2.5,1.9,4.1,1.4c0.6-0.2,1.3-0.6,1.7-0.8c1.3,0.8,0.7,3.3,3.2,2.5c2.7,5,5.4,10,8.1,15   C80.2,91,80.3,91.4,80.6,91.6z M68.5,68.8C63.9,59.4,58,50.7,53.1,41.5c-0.4-0.7,0.7-1.3,1.1-0.6c4.9,9.2,10.9,17.9,15.4,27.3   C69.9,68.9,68.8,69.5,68.5,68.8z"></path>
</g>
</svg>
