<?xml version="1.0" encoding="UTF-8"?>
<!-- Generator: Adobe Illustrator 25.4.1, SVG Export Plug-In . SVG Version: 6.00 Build 0)  -->
<svg xmlns="http://www.w3.org/2000/svg" xmlns:xlink="http://www.w3.org/1999/xlink" version="1.1" id="Layer_1" x="0px" y="0px" viewBox="0 0 100 100" style="enable-background:new 0 0 100 100;" xml:space="preserve">
<style type="text/css">
	.st0{fill:#212059;}
	.st1{fill:#FDD2B7;}
</style>
<g>
	<g>
		<circle class="st0" cx="50" cy="50" r="50"></circle>
	</g>
	<path class="st1" d="M47.3,63.1c-1.9,0.8-4,0.7-6,0.6c-1.1-0.1-2.3-0.3-3.4-0.5c-0.3-0.1-0.7-0.3-0.7-0.6c-0.5-2.9-0.9-5.9-0.2-8.8   c0.5-2.1,1.9-3.3,3.7-3.4c1.9-0.1,3.5,0.9,4.2,2.6c0.2,0.7,0.3,1.4,0.5,2.1c0.5,0.1,1.1,0.1,1.6,0.2c1.7,0.5,2.9,2,3,3.8   C50.1,60.9,49,62.5,47.3,63.1 M72.6,42.6c-1.3-1.2-3.1-1.2-4.5,0.2c-3.6,3.6-7.3,7.2-10.9,10.9c-0.3,0.3-0.6,0.5-0.9,0.8   c-1.1-1.3-0.7-2.2,0.3-3.2c4.1-4,8.2-8.1,12.2-12.2c1.5-1.5,1.7-3.4,0.4-4.7c-1.3-1.4-3.2-1.3-4.8,0.3c-2.3,2.3-4.6,4.6-6.9,6.9   c-1.9,1.9-3.8,3.9-5.8,6c-1.7,1.5-2.7-0.2-1.6-1.5c0.4-0.4,0.7-0.7,1-1c3.6-3.6,7.1-7.1,10.7-10.7c1.8-1.8,1.3-4.3-0.8-5.3   c-1.3-0.6-2.6-0.2-3.8,1c-3.8,3.8-7.7,7.6-11.4,11.5c-1.1,1.2-2.1,1.3-3.4,0.4c0.3-0.3,0.6-0.6,0.9-0.9c2.9-2.9,5.9-5.9,8.8-8.8   c1.2-1.2,1.2-3,0.1-4.1c-1.2-1.2-2.9-1.2-4.1,0.1c-5.8,5.8-11.7,11.5-17.5,17.4c-4.5,4.6-5.5,10.2-2.9,15.7   c2.1,4.5,5.5,7.9,9.9,10.2c1.3,0.7,2.8,1.1,4.3,1.4c4.3,0.7,8.3-0.4,12.2-2.1c3.2-1.3,6.4-2.5,9.9-2.9c1.6-0.2,3.3-0.2,4.9-0.3   c1,0,1.4-0.6,1.3-1.6c-0.1-2.4-2.3-4.7-5-4.8c-1.9-0.1-3.7,0.4-5.6,0.6c-0.6,0.1-1.1,0.1-2,0.2c4.8-4.8,9.4-9.4,13.9-13.9   c0.3-0.3,0.6-0.6,0.9-0.9C73.9,45.7,73.9,43.8,72.6,42.6"></path>
</g>
</svg>
