<?xml version="1.0" encoding="UTF-8"?>
<!DOCTYPE svg PUBLIC "-//W3C//DTD SVG 1.1//EN" "http://www.w3.org/Graphics/SVG/1.1/DTD/svg11.dtd">
<!-- Creator: CorelDRAW 2018 (64-Bit) -->
<svg xmlns="http://www.w3.org/2000/svg" xml:space="preserve" width="73.162mm" height="73.632mm" version="1.1" style="shape-rendering:geometricPrecision; text-rendering:geometricPrecision; image-rendering:optimizeQuality; fill-rule:evenodd; clip-rule:evenodd"
viewBox="0 0 7316.2 7363.2"
 xmlns:xlink="http://www.w3.org/1999/xlink">
 <defs>
  <style type="text/css">
   <![CDATA[
    .fil0 {fill:#FBE9DE;fill-rule:nonzero}
   ]]>
  </style>
 </defs>
 <g id="Слой_x0020_1">
  <metadata id="CorelCorpID_0Corel-Layer"/>
  <g id="_2533009764816">
   <path class="fil0" d="M1067.1 4125.25c113.56,217.73 213.71,442.38 324.52,661.56 122.03,241.38 135.22,457.84 -118.96,627 -22.22,14.78 -35.52,42.96 -60.39,74.22 410.07,493.22 918.31,818.52 1555.29,980.09 16.3,-60.89 26.21,-99.13 36.79,-137.27 72.32,-260.88 100.76,-297.07 372.93,-319.3 290.4,-23.7 582.89,-35.13 874.18,-31.29 286.56,3.85 455.96,222.36 412.75,506.45 -44.1,289.81 -200.13,507.33 -445.81,661.49 -326.49,204.93 -688.23,241.48 -1059.46,199.64 -729.47,-82.23 -1326.87,-443.83 -1868.56,-911.75 -379.02,-327.45 -720.23,-687.5 -923.07,-1156.94 -216.89,-501.93 -113.67,-1009.72 263.52,-1289.08 230.75,-170.96 505.28,-116.03 636.27,135.18z"/>
   <polygon class="fil0" points="266.25,3595.74 0.01,2974.14 671.45,3054.37 "/>
   <path class="fil0" d="M3733.6 7091.86c-796.36,0 -1476.34,-188.6 -2021.24,-560.6l99.42 -145.66c515.05,351.57 1161.66,529.87 1921.82,529.87 4.13,0 8.08,0 12.24,-0.04l24.45 -0.03c1857.94,0 3369.52,-1511.58 3369.52,-3369.52 0,-1857.94 -1511.58,-3369.49 -3369.52,-3369.49 -737.34,0 -1437.53,233.75 -2024.87,676.03 -568.26,427.88 -994.38,1036.32 -1199.83,1713.19 -51.97,170.96 -90.46,347.81 -114.41,525.54 -5.68,42.12 -10.62,84.84 -14.68,126.93l-175.57 -16.87c4.26,-44.34 9.45,-89.29 15.45,-133.63 25.22,-187.11 65.76,-373.24 120.4,-553.23 216.29,-712.36 664.67,-1352.65 1262.52,-1802.83 618.17,-465.49 1355.06,-711.52 2130.99,-711.52 1955.24,0 3545.91,1590.68 3545.91,3545.88 0,1955.23 -1590.67,3545.91 -3545.91,3545.91l-24.02 0.03c-4.24,0.04 -8.47,0.04 -12.67,0.04z"/>
   <path class="fil0" d="M3758.68 4219.44l-995.29 0c277.67,-213.82 506.24,-433.14 685.66,-658 179.39,-224.86 269.1,-468.7 269.1,-731.73 0,-240.85 -74.37,-436.21 -223.03,-586.14 -148.73,-149.86 -369.25,-224.87 -661.7,-224.87 -169.55,0 -323.82,33.2 -462.64,99.56 -138.85,66.32 -250.65,169.58 -335.45,309.67 -84.78,140.05 -129.61,314.6 -134.52,523.45l608.23 0c0,-127.78 26.38,-226.73 79.23,-296.76 52.81,-70.06 125.94,-105.06 219.36,-105.06 93.38,0 163.4,28.3 210.11,84.78 46.64,56.58 70.03,135.18 70.03,235.94 0,132.71 -47.91,269.09 -143.76,409.15 -95.85,140.09 -213.22,274.07 -352.04,401.81 -138.88,127.81 -328.71,291.22 -569.52,490.29 7.37,-4.9 -30.76,25.79 -114.26,92.15l0 468.13 1850.49 0 0 -512.37z"/>
   <path class="fil0" d="M5513.37 3743.91l-619.3 0 619.3 -936.34 0 936.34zm586.11 545.57l302.29 0 0 -545.57 -302.29 0 0 -1629.37 -704.08 0 -1164.87 1666.24 0 508.7 1238.61 0 0 479.22 630.34 0 0 -479.22z"/>
  </g>
 </g>
</svg>
